<svg width="28" height="27" viewBox="0 0 28 27" fill="none" xmlns="http://www.w3.org/2000/svg">
<path d="M23.5767 17.05C21.3794 13.8371 19.0102 10.3116 13.4713 11.7957C11.0025 12.4572 9.35923 13.7304 8.4477 15.6881C7.64029 17.4221 7.49518 19.4589 7.34696 21.3988C7.16312 23.7768 9.63547 25.4661 11.7937 24.4194C13.5643 23.5602 15.9661 22.2683 19.8194 21.9912C21.3044 21.8844 21.4472 21.8924 21.8312 21.7895C23.837 21.252 24.8075 18.8462 23.5767 17.05Z" fill="#FBDD7B"/>
<path d="M21.8312 21.7897C23.837 21.2522 24.8075 18.8463 23.5767 17.0502C21.3794 13.8373 19.0102 10.3118 13.4713 11.7959L16.3589 22.5725C19.1333 21.8291 20.9282 22.0317 21.8312 21.7897Z" fill="#FECB3E"/>
<path d="M16.5662 16.4036L15.4815 16.6942L15.1908 15.6095C15.0945 15.25 14.725 15.0367 14.3655 15.133C14.0061 15.2293 13.7927 15.5988 13.8891 15.9583L14.1797 17.043L13.0949 17.3337C12.7355 17.43 12.5222 17.7995 12.6185 18.159C12.7148 18.5184 13.0843 18.7318 13.4437 18.6354L14.5285 18.3448L14.8192 19.4296C14.9155 19.789 15.285 20.0023 15.6444 19.906C16.0039 19.8097 16.2172 19.4402 16.1209 19.0808L15.8303 17.996L16.915 17.7053C17.2745 17.609 17.4878 17.2395 17.3915 16.88C17.2952 16.5206 16.9257 16.3073 16.5662 16.4036Z" fill="#FFF8E0"/>
<path d="M16.1209 19.0806L15.8302 17.9958L16.915 17.7051C17.2744 17.6088 17.4878 17.2393 17.3915 16.8799C17.2951 16.5204 16.9256 16.3071 16.5662 16.4034L15.4814 16.6941L15.1907 15.6093C15.0944 15.2498 14.7249 15.0365 14.3655 15.1328L15.6444 19.9058C16.0039 19.8095 16.2172 19.44 16.1209 19.0806Z" fill="#FFE799"/>
<path d="M21.2765 6.2121C19.9606 6.5647 19.1769 7.92215 19.5295 9.23808C19.8821 10.554 21.2395 11.3377 22.5555 10.9851C23.8714 10.6325 24.6985 9.26345 24.3459 7.94752C23.9933 6.6316 22.5925 5.8595 21.2765 6.2121Z" fill="#FECB3E"/>
<path d="M16.4203 8.91634C17.9321 8.51124 18.7456 6.64494 18.2373 4.74783C17.729 2.85072 16.0913 1.6412 14.5795 2.0463C13.0676 2.45139 12.2541 4.3177 12.7625 6.21481C13.2708 8.11192 14.9084 9.32143 16.4203 8.91634Z" fill="#FECB3E"/>
<path d="M9.47766 10.7762C10.9895 10.3711 11.803 8.5048 11.2947 6.60769C10.7863 4.71058 9.14867 3.50106 7.63683 3.90616C6.125 4.31125 5.3115 6.17756 5.81983 8.07467C6.32815 9.97178 7.96582 11.1813 9.47766 10.7762Z" fill="#FBDD7B"/>
<path d="M3.92002 10.8626C2.60409 11.2152 1.77698 12.5843 2.12958 13.9002C2.48218 15.2161 3.88302 15.9882 5.19895 15.6356C6.51487 15.283 7.2986 13.9256 6.946 12.6096C6.5934 11.2937 5.23594 10.51 3.92002 10.8626Z" fill="#FBDD7B"/>
</svg>
